<mxfile host="www.draw.io" modified="2019-12-16T07:10:53.422Z" agent="Mozilla/5.0 (Windows NT 10.0; Win64; x64) AppleWebKit/537.36 (KHTML, like Gecko) Chrome/79.0.3945.79 Safari/537.36" etag="sYv__FdRAhh855mVQWFw" version="12.4.2" type="github" pages="1">
  <diagram id="h2BsfZmF5UdTD5cOu1fx" name="Page-1">
    <mxGraphModel dx="1038" dy="580" grid="1" gridSize="10" guides="1" tooltips="1" connect="1" arrows="1" fold="1" page="1" pageScale="1" pageWidth="850" pageHeight="1100" math="0" shadow="0">
      <root>
        <mxCell id="0"/>
        <mxCell id="1" parent="0"/>
        <mxCell id="tNoYK6IeeGuYusWuMGLW-1" value="" style="ellipse;html=1;shape=endState;fillColor=#000000;strokeColor=#ff0000;" vertex="1" parent="1">
          <mxGeometry x="730" y="235" width="90" height="90" as="geometry"/>
        </mxCell>
        <mxCell id="tNoYK6IeeGuYusWuMGLW-2" value="" style="ellipse;html=1;shape=startState;fillColor=#000000;strokeColor=#ff0000;" vertex="1" parent="1">
          <mxGeometry x="120" y="70" width="90" height="90" as="geometry"/>
        </mxCell>
        <mxCell id="tNoYK6IeeGuYusWuMGLW-3" value="" style="edgeStyle=orthogonalEdgeStyle;html=1;verticalAlign=bottom;endArrow=open;endSize=8;strokeColor=#ff0000;" edge="1" source="tNoYK6IeeGuYusWuMGLW-2" parent="1">
          <mxGeometry relative="1" as="geometry">
            <mxPoint x="165" y="250" as="targetPoint"/>
            <Array as="points">
              <mxPoint x="165" y="220"/>
            </Array>
          </mxGeometry>
        </mxCell>
        <mxCell id="tNoYK6IeeGuYusWuMGLW-6" style="edgeStyle=orthogonalEdgeStyle;rounded=0;orthogonalLoop=1;jettySize=auto;html=1;" edge="1" parent="1" source="tNoYK6IeeGuYusWuMGLW-4" target="tNoYK6IeeGuYusWuMGLW-5">
          <mxGeometry relative="1" as="geometry"/>
        </mxCell>
        <mxCell id="tNoYK6IeeGuYusWuMGLW-4" value="package list State" style="rounded=1;whiteSpace=wrap;html=1;" vertex="1" parent="1">
          <mxGeometry x="105" y="250" width="120" height="60" as="geometry"/>
        </mxCell>
        <mxCell id="tNoYK6IeeGuYusWuMGLW-10" style="edgeStyle=orthogonalEdgeStyle;rounded=0;orthogonalLoop=1;jettySize=auto;html=1;entryX=0;entryY=0.5;entryDx=0;entryDy=0;" edge="1" parent="1" source="tNoYK6IeeGuYusWuMGLW-5" target="tNoYK6IeeGuYusWuMGLW-9">
          <mxGeometry relative="1" as="geometry"/>
        </mxCell>
        <mxCell id="tNoYK6IeeGuYusWuMGLW-5" value="Selection" style="rounded=1;whiteSpace=wrap;html=1;" vertex="1" parent="1">
          <mxGeometry x="280" y="250" width="120" height="60" as="geometry"/>
        </mxCell>
        <mxCell id="tNoYK6IeeGuYusWuMGLW-8" value="[failed]" style="text;html=1;strokeColor=none;fillColor=none;align=center;verticalAlign=middle;whiteSpace=wrap;rounded=0;" vertex="1" parent="1">
          <mxGeometry x="410" y="180" width="40" height="20" as="geometry"/>
        </mxCell>
        <mxCell id="tNoYK6IeeGuYusWuMGLW-14" style="edgeStyle=orthogonalEdgeStyle;rounded=0;orthogonalLoop=1;jettySize=auto;html=1;entryX=0;entryY=0.5;entryDx=0;entryDy=0;" edge="1" parent="1" source="tNoYK6IeeGuYusWuMGLW-9" target="tNoYK6IeeGuYusWuMGLW-13">
          <mxGeometry relative="1" as="geometry"/>
        </mxCell>
        <mxCell id="tNoYK6IeeGuYusWuMGLW-18" style="edgeStyle=orthogonalEdgeStyle;rounded=0;orthogonalLoop=1;jettySize=auto;html=1;entryX=0.5;entryY=0;entryDx=0;entryDy=0;" edge="1" parent="1" source="tNoYK6IeeGuYusWuMGLW-9" target="tNoYK6IeeGuYusWuMGLW-5">
          <mxGeometry relative="1" as="geometry">
            <Array as="points">
              <mxPoint x="520" y="200"/>
              <mxPoint x="340" y="200"/>
            </Array>
          </mxGeometry>
        </mxCell>
        <mxCell id="tNoYK6IeeGuYusWuMGLW-9" value="purchase State(Bank)" style="rounded=1;whiteSpace=wrap;html=1;" vertex="1" parent="1">
          <mxGeometry x="450" y="250" width="120" height="60" as="geometry"/>
        </mxCell>
        <mxCell id="tNoYK6IeeGuYusWuMGLW-20" style="edgeStyle=orthogonalEdgeStyle;rounded=0;orthogonalLoop=1;jettySize=auto;html=1;entryX=0.5;entryY=1;entryDx=0;entryDy=0;" edge="1" parent="1" source="tNoYK6IeeGuYusWuMGLW-13" target="tNoYK6IeeGuYusWuMGLW-1">
          <mxGeometry relative="1" as="geometry"/>
        </mxCell>
        <mxCell id="tNoYK6IeeGuYusWuMGLW-13" value="&lt;span style=&quot;white-space: normal&quot;&gt;GetPackage&lt;/span&gt;" style="rounded=1;whiteSpace=wrap;html=1;" vertex="1" parent="1">
          <mxGeometry x="550" y="380" width="120" height="60" as="geometry"/>
        </mxCell>
        <mxCell id="tNoYK6IeeGuYusWuMGLW-15" value="[success]" style="text;html=1;strokeColor=none;fillColor=none;align=center;verticalAlign=middle;whiteSpace=wrap;rounded=0;" vertex="1" parent="1">
          <mxGeometry x="530" y="340" width="40" height="20" as="geometry"/>
        </mxCell>
        <mxCell id="tNoYK6IeeGuYusWuMGLW-21" value="back to home" style="text;html=1;strokeColor=none;fillColor=none;align=center;verticalAlign=middle;whiteSpace=wrap;rounded=0;" vertex="1" parent="1">
          <mxGeometry x="710" y="380" width="40" height="20" as="geometry"/>
        </mxCell>
        <mxCell id="tNoYK6IeeGuYusWuMGLW-24" value="click on package" style="text;html=1;strokeColor=none;fillColor=none;align=center;verticalAlign=middle;whiteSpace=wrap;rounded=0;" vertex="1" parent="1">
          <mxGeometry x="230" y="250" width="40" height="20" as="geometry"/>
        </mxCell>
        <mxCell id="tNoYK6IeeGuYusWuMGLW-25" value="click on purchase" style="text;html=1;strokeColor=none;fillColor=none;align=center;verticalAlign=middle;whiteSpace=wrap;rounded=0;" vertex="1" parent="1">
          <mxGeometry x="405" y="290" width="40" height="20" as="geometry"/>
        </mxCell>
      </root>
    </mxGraphModel>
  </diagram>
</mxfile>
